<svg width="583" height="74" viewBox="0 0 583 74" fill="none" xmlns="http://www.w3.org/2000/svg">
<path d="M55.4 57H22.9L16.7 72H0.0999999L31.3 2H47.3L78.6 72H61.6L55.4 57ZM50.3 44.7L39.2 17.9L28.1 44.7H50.3ZM105.498 73.2C95.4977 73.2 87.6977 70.4333 82.0977 64.9C76.5643 59.3667 73.7977 51.4667 73.7977 41.2V2H89.9977V40.6C89.9977 53.1333 95.1977 59.4 105.598 59.4C110.664 59.4 114.531 57.9 117.198 54.9C119.864 51.8333 121.198 47.0667 121.198 40.6V2H137.198V41.2C137.198 51.4667 134.398 59.3667 128.798 64.9C123.264 70.4333 115.498 73.2 105.498 73.2ZM190.506 35.9H205.306V64.3C201.506 67.1667 197.106 69.3667 192.106 70.9C187.106 72.4333 182.073 73.2 177.006 73.2C169.74 73.2 163.206 71.6667 157.406 68.6C151.606 65.4667 147.04 61.1667 143.706 55.7C140.44 50.1667 138.806 43.9333 138.806 37C138.806 30.0667 140.44 23.8667 143.706 18.4C147.04 12.8667 151.64 8.56666 157.506 5.5C163.373 2.36667 169.973 0.799999 177.306 0.799999C183.44 0.799999 189.006 1.83333 194.006 3.89999C199.006 5.96666 203.206 8.96666 206.606 12.9L196.206 22.5C191.206 17.2333 185.173 14.6 178.106 14.6C173.64 14.6 169.673 15.5333 166.206 17.4C162.74 19.2667 160.04 21.9 158.106 25.3C156.173 28.7 155.206 32.6 155.206 37C155.206 41.3333 156.173 45.2 158.106 48.6C160.04 52 162.706 54.6667 166.106 56.6C169.573 58.4667 173.506 59.4 177.906 59.4C182.573 59.4 186.773 58.4 190.506 56.4V35.9ZM264.555 59V72H210.355V2H263.255V15H226.455V30.2H258.955V42.8H226.455V59H264.555ZM355.865 72L355.765 12.1L326.465 62.7H323.965L294.665 12.3V72H289.665V2H293.965L325.265 56.1L356.565 2H360.765L360.865 72H355.865ZM423.57 67.4V72H375.27V2H422.07V6.6H380.37V34.2H417.67V38.7H380.37V67.4H423.57ZM432.165 2H459.865C467.132 2 473.565 3.5 479.165 6.5C484.832 9.5 489.232 13.6667 492.365 19C495.498 24.2667 497.065 30.2667 497.065 37C497.065 43.7333 495.498 49.7667 492.365 55.1C489.232 60.3667 484.832 64.5 479.165 67.5C473.565 70.5 467.132 72 459.865 72H432.165V2ZM459.465 67.4C465.932 67.4 471.632 66.1333 476.565 63.6C481.498 61 485.298 57.4 487.965 52.8C490.632 48.2 491.965 42.9333 491.965 37C491.965 31.0667 490.632 25.8 487.965 21.2C485.298 16.6 481.498 13.0333 476.565 10.5C471.632 7.9 465.932 6.6 459.465 6.6H437.265V67.4H459.465ZM504.782 2H509.882V72H504.782V2ZM567.574 52.3H526.974L518.074 72H512.574L544.774 2H549.874L582.074 72H576.574L567.574 52.3ZM565.674 48L547.274 7.59999L528.974 48H565.674Z" fill="black"/>
</svg>
