<svg width="352" height="336" viewBox="0 0 352 336" fill="none" xmlns="http://www.w3.org/2000/svg">
<path d="M189.17 69.3999C189.17 75.0799 184.56 79.7 178.88 79.7C173.19 79.7 168.58 75.0799 168.58 69.3999C168.58 63.7099 173.19 59.1001 178.88 59.1001C184.56 59.1001 189.17 63.7099 189.17 69.3999Z" fill="#6432FF"/>
<path fill-rule="evenodd" clip-rule="evenodd" d="M135.75 148.75C122.89 147.07 109.84 140.76 96.98 130C57.8 97.25 60.88 57.7701 61.03 56.1101L61.34 52.6599L64.68 51.74C66.13 51.34 97.3 43.1799 132.07 65.4199C137.72 21.8199 174.89 2.24012 176.59 1.37012L178.88 0.199951L181.16 1.37012C182.86 2.24012 219.98 21.8001 225.67 65.3301C260.39 43.1201 291.52 51.2299 292.97 51.6299L296.31 52.54L296.63 55.99C296.78 57.66 299.91 97.1299 260.76 129.93C247.88 140.72 234.82 147.05 221.93 148.73L220.64 138.82C231.6 137.38 242.94 131.81 254.34 122.27C283.13 98.14 286.51 70.4301 286.74 60.5601C277.69 59.1701 252.96 57.7499 226.4 76.9299C226.3 111.66 205.88 127.15 193.69 133.29L186.1 137.12L186.44 128.62C186.5 127.29 188.07 95.64 213.9 74C214.69 73.34 215.47 72.7001 216.26 72.0701C214.13 35.6301 187.08 16.5501 178.88 11.5701C170.68 16.5401 143.59 35.6499 141.49 72.1499C142.25 72.7599 143.02 73.38 143.78 74.02C169.62 95.63 171.26 127.28 171.31 128.62L171.68 137.13L164.07 133.3C151.89 127.16 131.49 111.69 131.36 77.02C104.75 57.82 79.99 59.2599 70.92 60.6699C71.16 70.5199 74.57 98.2401 103.39 122.33C114.78 131.85 126.1 137.4 137.05 138.84L135.75 148.75ZM215.83 85.8201C205.15 96.7501 200.33 109.76 198.16 118.64C206.32 112.13 213.77 101.88 215.83 85.8201ZM141.93 85.9199C144.02 101.91 151.44 112.13 159.57 118.62C157.4 109.77 152.57 96.8099 141.93 85.9199Z" fill="url(#paint0_linear_3_906)"/>
<path fill-rule="evenodd" clip-rule="evenodd" d="M237.97 201.07C215.69 201.07 196.94 187.7 178.88 174.34C160.81 187.7 142.06 201.07 119.78 201.07C74.5601 201.07 61.92 172.23 61.41 171.01L60.5 168.85L61.57 166.78C62.2 165.57 77.38 137.07 122.45 137.07C143.62 137.07 161.62 149.21 178.88 161.9C196.14 149.21 214.13 137.07 235.3 137.07C280.37 137.07 295.56 165.57 296.18 166.78L297.25 168.85L296.34 171.01C295.83 172.23 283.2 201.07 237.97 201.07ZM187.3 168.12C203.86 180.31 219.81 191.07 237.97 191.07C269.78 191.07 282.38 175.19 285.98 169.27C281.85 163.32 267.61 147.07 235.3 147.07C218.14 147.07 202.93 156.74 187.3 168.12ZM71.77 169.27C75.35 175.17 87.9401 191.07 119.78 191.07C137.94 191.07 153.89 180.31 170.45 168.12C154.82 156.74 139.61 147.07 122.45 147.07C90.14 147.07 75.9 163.32 71.77 169.27Z" fill="url(#paint1_linear_3_906)"/>
<g style="mix-blend-mode:multiply" opacity="0.502">
<g style="mix-blend-mode:multiply" opacity="0.502">
<path d="M235.16 59.9399C235.7 62.7899 236.21 66.35 236.46 70.55C233.15 72.37 229.79 74.4799 226.4 76.9299C226.41 72.5399 226.12 68.6501 225.68 65.3301C228.87 63.2801 232.04 61.4999 235.16 59.9399Z" fill="#6432FF"/>
</g>
<g style="mix-blend-mode:multiply" opacity="0.502">
<path d="M213.88 95.0801C213.89 95.0501 213.9 95.02 213.91 94.99C213.9 95.02 213.89 95.0501 213.88 95.0801Z" fill="#BF8C00"/>
</g>
<g style="mix-blend-mode:multiply" opacity="0.502">
<path d="M206.36 81.32C208.61 78.8 211.11 76.3399 213.9 73.9999C214.69 73.3399 215.47 72.7 216.26 72.07C216.2 70.97 216.73 78.6798 215.76 85.8998C211.22 90.5598 207.75 95.6 205.08 100.53C206.66 92.8 206.68 85.99 206.36 81.32Z" fill="#6432FF"/>
</g>
<g style="mix-blend-mode:multiply" opacity="0.502">
<path d="M143.88 95.1001L143.86 95.0801C143.83 94.9901 143.81 94.9 143.79 94.8C143.82 94.9 143.85 95.0001 143.88 95.1001Z" fill="#BF8C00"/>
</g>
<g style="mix-blend-mode:multiply" opacity="0.502">
<path d="M131.28 76.96C127.88 74.52 124.52 72.4101 121.21 70.6001C121.46 66.4001 121.96 62.84 122.51 59.99C125.63 61.54 128.79 63.3301 131.99 65.3701C131.56 68.6901 131.26 72.58 131.28 76.96Z" fill="#6432FF"/>
</g>
<g style="mix-blend-mode:multiply" opacity="0.502">
<path d="M151.3 81.2999C150.98 85.9399 151 92.7098 152.55 100.4C149.9 95.5298 146.46 90.5699 141.99 85.9799C140.3 73.7499 141.63 69.5998 141.49 72.1498C142.25 72.7598 143.02 73.3799 143.78 74.0199C146.56 76.3499 149.05 78.7999 151.3 81.2999Z" fill="#6432FF"/>
</g>
</g>
<g style="mix-blend-mode:multiply" opacity="0.502">
<g style="mix-blend-mode:multiply" opacity="0.502">
<path d="M178.91 161.88C181.76 159.78 184.63 157.7 187.53 155.69C190.85 158.31 193.88 160.29 196.38 161.75C193.36 163.77 190.34 165.92 187.3 168.12C187.33 168.15 187.36 168.17 187.39 168.19C184.9 166.57 182.02 164.5 178.91 161.88Z" fill="#6432FF"/>
</g>
<g style="mix-blend-mode:multiply" opacity="0.502">
<path d="M178.87 174.34C176.04 176.43 173.19 178.53 170.31 180.58C167.04 178.05 164.03 176.09 161.44 174.58C164.44 172.51 167.43 170.34 170.45 168.12C170.45 168.12 170.44 168.12 170.44 168.11C172.98 169.76 175.83 171.81 178.87 174.34Z" fill="#6432FF"/>
</g>
</g>
<path fill-rule="evenodd" clip-rule="evenodd" d="M67.65 277.51H20.07L9.82001 300.33H0.420013L39.46 214.93H48.37L87.41 300.33H77.89L67.65 277.51ZM64.35 270.19L43.86 224.32L23.36 270.19H64.35Z" fill="#6432FF"/>
<path d="M108.27 291.54C102.09 285.2 99 275.97 99 263.85V214.93H108.03V263.48C108.03 273.41 110.26 280.81 114.74 285.69C119.21 290.57 125.68 293.01 134.14 293.01C142.68 293.01 149.18 290.57 153.66 285.69C158.13 280.81 160.37 273.41 160.37 263.48V214.93H169.15V263.85C169.15 275.97 166.08 285.2 159.94 291.54C153.8 297.89 145.2 301.06 134.14 301.06C123.07 301.06 114.45 297.89 108.27 291.54Z" fill="#6432FF"/>
<path d="M256.5 257.63H265.16V290.2C261.18 293.7 256.46 296.38 251.01 298.25C245.56 300.12 239.83 301.06 233.81 301.06C225.27 301.06 217.58 299.19 210.75 295.45C203.92 291.71 198.55 286.52 194.65 279.89C190.74 273.26 188.79 265.84 188.79 257.63C188.79 249.41 190.74 241.99 194.65 235.36C198.55 228.73 203.92 223.55 210.75 219.81C217.58 216.07 225.31 214.19 233.93 214.19C240.44 214.19 246.42 215.23 251.87 217.3C257.31 219.38 261.91 222.45 265.65 226.52L260.04 232.25C253.29 225.58 244.71 222.25 234.3 222.25C227.38 222.25 221.14 223.77 215.57 226.82C210 229.87 205.63 234.1 202.46 239.51C199.28 244.92 197.7 250.96 197.7 257.63C197.7 264.3 199.28 270.31 202.46 275.68C205.63 281.05 209.98 285.28 215.51 288.37C221.04 291.46 227.26 293.01 234.17 293.01C242.96 293.01 250.4 290.81 256.5 286.42V257.63Z" fill="#6432FF"/>
<path d="M351.05 292.52V300.33H290.66V214.93H349.22V222.73H299.69V253.11H343.85V260.8H299.69V292.52H351.05Z" fill="#6432FF"/>
<path d="M214.01 335.69L213.96 318.09L205.21 332.49H202.36L193.61 318.54V335.69H187.61V307.09H193.01L203.86 324.99L214.56 307.09H219.96L220.01 335.69H214.01Z" fill="#FD00C8"/>
<path d="M254.91 330.64V335.69H232.71V307.09H254.36V312.19H239.01V318.74H252.66V323.64H239.01V330.64H254.91Z" fill="#FD00C8"/>
<path fill-rule="evenodd" clip-rule="evenodd" d="M265.41 307.09H278.36C281.56 307.09 284.37 307.68 286.78 308.84C289.2 310.01 291.06 311.67 292.38 313.82C293.7 315.97 294.36 318.49 294.36 321.39C294.36 324.29 293.7 326.82 292.38 328.97C291.06 331.12 289.2 332.78 286.78 333.94C284.37 335.11 281.56 335.69 278.36 335.69H265.41V307.09ZM278.16 330.59C281.22 330.59 283.63 329.79 285.38 328.17C287.13 326.55 288.01 324.29 288.01 321.39C288.01 318.49 287.13 316.24 285.38 314.64C283.63 313.04 281.22 312.24 278.16 312.24H271.71V330.59H278.16Z" fill="#FD00C8"/>
<path d="M304.71 307.09H311.01V335.69H304.71V307.09Z" fill="#FD00C8"/>
<path fill-rule="evenodd" clip-rule="evenodd" d="M342.41 329.49H327.96L325.26 335.69H319.11L332.11 307.09H338.36L351.31 335.69H345.06L342.41 329.49ZM340.36 324.69L335.21 312.79L330.06 324.69H340.36Z" fill="#FD00C8"/>
<defs>
<linearGradient id="paint0_linear_3_906" x1="54.02" y1="-1.80305" x2="294.001" y2="-1.80305" gradientUnits="userSpaceOnUse">
<stop stop-color="#DF4AA5"/>
<stop offset="1" stop-color="#3274BE"/>
</linearGradient>
<linearGradient id="paint1_linear_3_906" x1="50.714" y1="135.067" x2="297.093" y2="135.067" gradientUnits="userSpaceOnUse">
<stop stop-color="#DF4AA5"/>
<stop offset="1" stop-color="#3274BE"/>
</linearGradient>
</defs>
</svg>
